<svg width="54" height="90" viewBox="0 0 54 90" fill="none" xmlns="http://www.w3.org/2000/svg">
<rect x="0.5" y="0.5" width="53" height="89" rx="4.5" stroke="#9747FF" stroke-dasharray="10 5"/>
<rect x="20.5" y="20.5" width="15" height="15" rx="1.5" stroke="#2E2F42" stroke-opacity="0.4"/>
<rect x="20.5" y="55.5" width="15" height="15" rx="1.5" fill="#404BBF"/>
<rect x="20.5" y="55.5" width="15" height="15" rx="1.5" stroke="#404BBF"/>
<path d="M31.4456 59.2551C31.6184 59.0897 31.8483 58.9982 32.0869 59C32.3255 59.0018 32.5541 59.0968 32.7244 59.2648C32.8947 59.4328 32.9934 59.6608 32.9997 59.9005C33.006 60.1403 32.9194 60.3732 32.7582 60.5501L27.8636 66.7044C27.7794 66.7955 27.6778 66.8686 27.5649 66.9194C27.452 66.9702 27.33 66.9975 27.2064 66.9998C27.0827 67.0021 26.9598 66.9793 26.8451 66.9328C26.7304 66.8863 26.6262 66.817 26.5387 66.729L23.2928 63.4656C23.2024 63.381 23.1299 63.2788 23.0796 63.1654C23.0294 63.0519 23.0023 62.9294 23.0001 62.8052C22.998 62.681 23.0207 62.5577 23.067 62.4425C23.1132 62.3273 23.1821 62.2227 23.2695 62.1348C23.3568 62.047 23.4609 61.9778 23.5755 61.9312C23.69 61.8847 23.8127 61.8619 23.9363 61.8641C24.0598 61.8662 24.1816 61.8934 24.2945 61.944C24.4073 61.9945 24.5089 62.0674 24.5931 62.1583L27.1619 64.7397L31.4223 59.2822C31.4299 59.2727 31.4381 59.2636 31.4468 59.2551H31.4456Z" fill="#F4F4FD"/>
</svg>
